<svg id="SvgjsSvg1001" width="288" height="288" xmlns="http://www.w3.org/2000/svg" version="1.1" xmlns:xlink="http://www.w3.org/1999/xlink" xmlns:svgjs="http://svgjs.com/svgjs"><defs id="SvgjsDefs1002"></defs><g id="SvgjsG1008" transform="matrix(0.916700005531311,0,0,0.916700005531311,11.995199203491211,11.995199203491211)"><svg xmlns="http://www.w3.org/2000/svg" enable-background="new 0 0 128 128" viewBox="0 0 128 128" width="288" height="288"><circle cx="64" cy="64" r="64" fill="#f15a29" class="color000 svgShape"></circle><path fill="#ffffff" d="M103 29H25c-.6 0-1 .4-1 1v12c0 .6.4 1 1 1h78c.6 0 1-.4 1-1V30C104 29.4 103.6 29 103 29zM103 57H25c-.6 0-1 .4-1 1v12c0 .6.4 1 1 1h78c.6 0 1-.4 1-1V58C104 57.4 103.6 57 103 57zM103 85H25c-.6 0-1 .4-1 1v12c0 .6.4 1 1 1h78c.6 0 1-.4 1-1V86C104 85.4 103.6 85 103 85z" class="colorfff svgShape"></path></svg></g></svg>